<svg xmlns="http://www.w3.org/2000/svg" width="1200" height="300" viewBox="0 0 1200 300" role="img" aria-label="Vladyslav Haisiuk — Senior PHP Engineer">
  <defs>
    <linearGradient id="bg" x1="0" y1="0" x2="1" y2="1"><stop offset="0" stop-color="#EEF0F2"/><stop offset="1" stop-color="#DCE1E5"/></linearGradient>
    <filter id="blur" x="-50%" y="-50%" width="200%" height="200%"><feGaussianBlur stdDeviation="46"/></filter>
    <clipPath id="r"><rect width="1200" height="300" rx="24"/></clipPath>
  </defs>
  <g clip-path="url(#r)">
    <rect width="1200" height="300" fill="url(#bg)"/>
    <circle cx="1060" cy="40" r="170" fill="#8F9AA3" opacity="0.7" filter="url(#blur)"/>
    <circle cx="180" cy="300" r="150" fill="#B4BCC3" opacity="0.7" filter="url(#blur)"/>
    <circle cx="760" cy="290" r="120" fill="#8F9AA3" opacity="0.5" filter="url(#blur)"/>
    <rect x="60" y="54" width="1080" height="192" rx="20" fill="rgba(255,255,255,0.55)" stroke="rgba(255,255,255,0.9)"/>
    <text x="104" y="128" font-family="-apple-system, BlinkMacSystemFont, 'Segoe UI', Helvetica, Arial, sans-serif" font-size="46" font-weight="800" fill="#2B2F33" letter-spacing="-0.5">Vladyslav Haisiuk</text>
    <text x="104" y="168" font-family="-apple-system, BlinkMacSystemFont, 'Segoe UI', Helvetica, Arial, sans-serif" font-size="20" font-weight="600" fill="#5C646B">Senior PHP Engineer  ·  Laravel  ·  Tempest  ·  AI-native development</text>
    <text x="104" y="212" font-family="ui-monospace, SFMono-Regular, Menlo, Consolas, monospace" font-size="15" fill="#7A838B">building hoshi.computer  ·  author of tempcord  ·  katowice, pl</text>
    <g transform="translate(940,78) scale(1.45)"><g stroke="#2B2F33" stroke-width="0.7" stroke-opacity="0.6" fill="none"><line x1="90" y1="30" x2="90" y2="70"/><line x1="88" y1="30" x2="92" y2="30"/><line x1="88" y1="70" x2="92" y2="70"/><path d="M4,4 h6 M4,4 v6 M96,4 h-6 M96,4 v6 M4,96 h6 M4,96 v-6 M96,96 h-6 M96,96 v-6"/></g><g stroke="#2B2F33" stroke-width="1.1" stroke-dasharray="2.4 2.2" stroke-opacity="0.5" fill="none"><line x1="50" y1="50" x2="16" y2="70"/><line x1="50" y1="50" x2="84" y2="70"/><line x1="50" y1="50" x2="50" y2="10"/></g><polygon points="50,10 84,30 50,50 16,30" fill="#2B2F33" fill-opacity="0.06"/><polygon points="16,30 50,50 50,90 16,70" fill="#2B2F33" fill-opacity="0.16"/><polygon points="84,30 50,50 50,90 84,70" fill="#2B2F33" fill-opacity="0.10"/><g fill="none" stroke="#2B2F33" stroke-width="2.2" stroke-linejoin="round" stroke-linecap="round"><polygon points="50,10 84,30 84,70 50,90 16,70 16,30"/><polyline points="16,30 50,50 84,30"/><line x1="50" y1="50" x2="50" y2="90"/></g><path d="M23.514 42.02608425338401 27.73 44.50949804261306 32.96988571428572 66.65659803779774 33.03011428571428 66.69207537764386 38.269999999999996 50.718032515685664 42.486000000000004 53.20144630491471 34.987542857142856 73.58451749407163 31.012457142857144 71.2430130642271Z" fill="#2B2F33"/><path d="M58.44754285714286 52.624016979000984 62.54308571428571 50.211557869464194V60.59212929803563L71.45691428571429 55.34148300080851V44.96091157223708L75.55245714285715 42.54845246270029V67.3484524627003L71.45691428571429 69.76091157223708V59.45119728652279L62.54308571428571 64.7018435837499V75.0115578694642L58.44754285714286 77.42401697900098Z" fill="#2B2F33"/></g>
  </g>
</svg>